<svg xmlns="http://www.w3.org/2000/svg" viewBox="0 0 45.02 45"><defs><style>.cls-1{fill:#fff;}</style></defs><g id="Capa_2" data-name="Capa 2"><g id="Capa_1-2" data-name="Capa 1"><path class="cls-1" d="M32.64,21.64a2.93,2.93,0,0,0-2.07-.79,2.92,2.92,0,0,0-2,.8,3.06,3.06,0,0,0-.65.91,3.15,3.15,0,0,0-.3,1.17h6A3,3,0,0,0,32.64,21.64Z"/><path class="cls-1" d="M20,24.42a1.82,1.82,0,0,0-.6-.47,1.69,1.69,0,0,0-.75-.17H13.85v4.27h4.68A2,2,0,0,0,20,27.44a2.05,2.05,0,0,0,.44-.67,2.26,2.26,0,0,0,.16-.82,2.4,2.4,0,0,0-.15-.84A2.36,2.36,0,0,0,20,24.42Z"/><path class="cls-1" d="M19.41,20.74A2,2,0,0,0,20,19.23a2.1,2.1,0,0,0-.51-1.48,1.71,1.71,0,0,0-1.27-.55H13.85v4.09h4.2A1.86,1.86,0,0,0,19.41,20.74Z"/><path class="cls-1" d="M33.24,0H11.78A11.81,11.81,0,0,0,0,11.77V33.23A11.81,11.81,0,0,0,11.78,45H33.24A11.81,11.81,0,0,0,45,33.23V11.77A11.81,11.81,0,0,0,33.24,0ZM26.69,15.28h7.76V17.2H26.69ZM23.35,28.35a3.8,3.8,0,0,1-1.13,1.3,5.5,5.5,0,0,1-1.67.8,7.31,7.31,0,0,1-2,.27H10.69V14.51h8.69a3.26,3.26,0,0,1,1.53.36,4,4,0,0,1,1.16,1,4.22,4.22,0,0,1,.74,1.33,4.31,4.31,0,0,1,.27,1.49,4.42,4.42,0,0,1-.6,2.23,3.62,3.62,0,0,1-1.73,1.54A4.11,4.11,0,0,1,23,23.88a4.27,4.27,0,0,1,.81,2.66A3.87,3.87,0,0,1,23.35,28.35Zm13.24-2.7h-9A3.48,3.48,0,0,0,28,26.87a2.93,2.93,0,0,0,.68.91,3,3,0,0,0,.95.57,3,3,0,0,0,1.11.2,3.38,3.38,0,0,0,1.67-.43A2.33,2.33,0,0,0,33.45,27l2.54.71a5.22,5.22,0,0,1-2.05,2.18,6.29,6.29,0,0,1-3.35.85,6.54,6.54,0,0,1-2.52-.47,5.74,5.74,0,0,1-3.16-3.2,6.24,6.24,0,0,1-.43-2.28,6.48,6.48,0,0,1,.42-2.34,5.69,5.69,0,0,1,3.16-3.24,6.51,6.51,0,0,1,2.55-.48,6.39,6.39,0,0,1,2.54.48,6,6,0,0,1,3.49,6A1.72,1.72,0,0,1,36.59,25.65Z"/></g></g></svg>