<svg xmlns="http://www.w3.org/2000/svg" viewBox="0 0 45 45"><defs><style>.cls-1{fill:#fff;}</style></defs><g id="Capa_2" data-name="Capa 2"><g id="Capa_1-2" data-name="Capa 1"><path class="cls-1" d="M33.23,0H11.77A11.81,11.81,0,0,0,0,11.77V33.23A11.81,11.81,0,0,0,11.77,45H33.23A11.81,11.81,0,0,0,45,33.23V11.77A11.81,11.81,0,0,0,33.23,0Zm2.13,12.5C35.21,14.92,30.71,33,30.71,33s-.27,1.06-1.23,1.09a1.73,1.73,0,0,1-1.29-.49c-1-.88-3.37-2.55-5.55-4.06-.66.56-2,1.7-3.35,3.06-1.93,1.94-1.68,0-1.68,0l.59-6.31h0a.33.33,0,0,1,.07-.11S29.67,16.09,30,15c0-.08-.07-.12-.19-.08-.75.28-13.86,8.55-15.31,9.47a.74.74,0,0,1-.32,0L7.8,22.35s-.76-.3-.52-1c.06-.15.16-.27.46-.48C9.15,19.89,33.82,11,33.82,11a2.07,2.07,0,0,1,1.11-.08.59.59,0,0,1,.41.44,2.05,2.05,0,0,1,.06.57C35.39,12.11,35.37,12.26,35.36,12.5Z"/></g></g></svg>