<svg xmlns="http://www.w3.org/2000/svg" viewBox="0 0 44.96 45"><defs><style>.cls-1{fill:#fff;}</style></defs><g id="Capa_2" data-name="Capa 2"><g id="Capa_1-2" data-name="Capa 1"><path class="cls-1" d="M27.74,11.79H17.22a5.45,5.45,0,0,0-5.44,5.44V27.77a5.45,5.45,0,0,0,5.44,5.44H27.74a5.45,5.45,0,0,0,5.44-5.44V17.23A5.45,5.45,0,0,0,27.74,11.79ZM22.59,29a6.5,6.5,0,1,1,6.49-6.5A6.5,6.5,0,0,1,22.59,29Zm6.87-11.89A1.55,1.55,0,1,1,31,15.57,1.55,1.55,0,0,1,29.46,17.11Z"/><path class="cls-1" d="M22.59,18.34a4.16,4.16,0,1,0,4.16,4.16A4.17,4.17,0,0,0,22.59,18.34Z"/><path class="cls-1" d="M33.2,0H11.76A11.8,11.8,0,0,0,0,11.77V33.23A11.8,11.8,0,0,0,11.76,45H33.2A11.8,11.8,0,0,0,45,33.23V11.77A11.8,11.8,0,0,0,33.2,0Zm2.46,27.77a7.93,7.93,0,0,1-7.92,7.92H17.22A7.93,7.93,0,0,1,9.3,27.77V17.23a7.93,7.93,0,0,1,7.92-7.92H27.74a7.93,7.93,0,0,1,7.92,7.92Z"/></g></g></svg>