<svg id="Capa_1" data-name="Capa 1" xmlns="http://www.w3.org/2000/svg" viewBox="0 0 61 61"><defs><style>.cls-1{fill:#61a706;}.cls-2{fill:#fff;}</style></defs><rect class="cls-1" x="0.41" y="0.41" width="60.18" height="60.18" rx="8.66"/><path class="cls-2" d="M33.27,45a2.78,2.78,0,0,1-3.18,1.31,1.26,1.26,0,0,1-.67-.83c-1.06-5-2.22-9.93-3-14.94a80.66,80.66,0,0,1-.83-10.31,14,14,0,0,1,3.12-9,2.23,2.23,0,0,1,3.57.09A17.18,17.18,0,0,1,35,20c.47,8.33-1.09,16.4-3.07,24.42a.76.76,0,0,0,.16.75c1-2,2.06-4,2.95-6.1a41.82,41.82,0,0,0,3.8-16.31A13.83,13.83,0,0,0,33.7,11.33a9.6,9.6,0,0,1-.87-.92,11.37,11.37,0,0,1,7,3.21,11.06,11.06,0,0,1,3,10.77,53.64,53.64,0,0,1-9.19,20.16Z"/><path class="cls-2" d="M27.89,45.27a66.78,66.78,0,0,1-8.44-16.06c-1.23-3.54-2.1-7.16-.84-10.9,1.45-4.34,4.57-6.82,9-7.84a.76.76,0,0,1,.26,0,1.41,1.41,0,0,1,.34.14,7.5,7.5,0,0,1-.68.62,12.27,12.27,0,0,0-5,10.11c-.26,8.42,2.43,16.09,6.23,23.46.18.35.38.7.56,1a2.4,2.4,0,0,1,0,.56l-1-.74Z"/><path class="cls-2" d="M27.89,45.27l.36.41c-.36-.14-.82-.18-1.07-.43A48.34,48.34,0,0,1,16.11,29.42a15.86,15.86,0,0,1-1.22-10.37c.87-3.41,3.24-5.55,6.35-6.93l.33.32a4.4,4.4,0,0,0-.65.33c-4.05,3-5.12,7.16-4.46,11.93A23.84,23.84,0,0,0,20,34c2.22,3.57,4.69,7,7.06,10.47A6.75,6.75,0,0,0,27.89,45.27Z"/><path class="cls-2" d="M33.27,45l.36-.4a38.89,38.89,0,0,0,7.9-11.41c1.69-3.65,3.25-7.38,3.21-11.54a10.81,10.81,0,0,0-3.85-8.28l-1-.94c4.5,1.6,7.41,7.29,6.51,11.84-1.4,7-5.19,12.63-9.74,17.88-.78.9-1.6,1.78-2.45,2.62C34,44.91,33.58,44.88,33.27,45Z"/><path class="cls-2" d="M27.75,47.61h5.76c-.32,1.32-.57,2.55-.93,3.76-.07.22-.51.44-.81.48-2.86.37-3,.24-3.71-2.58C27.94,48.76,27.86,48.24,27.75,47.61Z"/></svg>