<svg xmlns="http://www.w3.org/2000/svg" viewBox="0 0 45 45"><defs><style>.cls-1{fill:none;}.cls-2{fill:#fff;}</style></defs><g id="Capa_2" data-name="Capa 2"><g id="Capa_1-2" data-name="Capa 1"><path class="cls-1" d="M34.41,11.86H10.59a3.13,3.13,0,0,0-3,3.23V29.91a3.13,3.13,0,0,0,3,3.23H34.41a3.13,3.13,0,0,0,3-3.23V15.09A3.13,3.13,0,0,0,34.41,11.86ZM10.59,13.42H34.41A1.56,1.56,0,0,1,35.6,14l-11,7.85,0,0c-1.54,1.25-3.61,0-3.63-.05L9.19,14.35A1.57,1.57,0,0,1,10.59,13.42ZM36.1,31.07h0l-.44.44-.34-.33a1.46,1.46,0,0,1-.91.4H10.59a1.36,1.36,0,0,1-.71-.32l-.25.25-.44-.44h0l-.44-.45.4-.39c0-.12-.13-.2-.13-.32V16.05l8.69,5.52.29-.29.88.88-.09.09,1.44.92A5.74,5.74,0,0,0,23,24a3.82,3.82,0,0,0,2.44-.85l1.12-.8-.18-.18.88-.88.32.32,8.37-6v14.3s0,.06,0,.11l.61.6-.44.45Z"/><path class="cls-2" d="M24.61,21.88l0,0L35.6,14a1.56,1.56,0,0,0-1.19-.58H10.59a1.57,1.57,0,0,0-1.4.93L21,21.83S23.07,23.13,24.61,21.88Z"/><path class="cls-2" d="M25.47,23.14A3.82,3.82,0,0,1,23,24a5.74,5.74,0,0,1-2.8-.82l-1.44-.92-8.91,9a1.36,1.36,0,0,0,.71.32H34.41a1.46,1.46,0,0,0,.91-.4l-8.73-8.84Z"/><path class="cls-2" d="M9,16.05V29.91c0,.12.1.2.13.32l8.56-8.66Z"/><path class="cls-2" d="M36,29.91V15.61l-8.37,6L35.93,30C35.94,30,36,30,36,29.91Z"/><path class="cls-2" d="M33.23,0H11.77A11.81,11.81,0,0,0,0,11.77V33.23A11.81,11.81,0,0,0,11.77,45H33.23A11.81,11.81,0,0,0,45,33.23V11.77A11.81,11.81,0,0,0,33.23,0Zm4.2,29.91a3.13,3.13,0,0,1-3,3.23H10.59a3.13,3.13,0,0,1-3-3.23V15.09a3.13,3.13,0,0,1,3-3.23H34.41a3.13,3.13,0,0,1,3,3.23Z"/></g></g></svg>