<svg id="Capa_1" data-name="Capa 1" xmlns="http://www.w3.org/2000/svg" viewBox="0 0 61 61"><defs><style>.cls-1{fill:#401020;}.cls-2{fill:#e64869;fill-rule:evenodd;}</style></defs><rect class="cls-1" x="0.41" y="0.41" width="60.18" height="60.18" rx="8.66"/><path class="cls-2" d="M17.55,43.58V19h4.52V43.58Zm17.52-3a4.79,4.79,0,0,0,1.22-.16,6.67,6.67,0,0,0,1.1-.45,6.27,6.27,0,0,0,.91-.61,7,7,0,0,0,.67-.64V30.25a7.54,7.54,0,0,0-1.73-1.05,5.17,5.17,0,0,0-2-.41,4.19,4.19,0,0,0-1.43.27,3.67,3.67,0,0,0-1.36.94,5.32,5.32,0,0,0-1,1.84,9.13,9.13,0,0,0-.41,3A7.25,7.25,0,0,0,32,39a3.48,3.48,0,0,0,3,1.53ZM26.47,35a12.25,12.25,0,0,1,.65-4.17,8.86,8.86,0,0,1,1.75-3.06,7.26,7.26,0,0,1,2.55-1.86,7.41,7.41,0,0,1,4.35-.49A9,9,0,0,1,37,25.8a8,8,0,0,1,1.06.5,9.19,9.19,0,0,1,.93.57h0c0-.25,0-.59,0-1V17h4.36V38.29c0,1.18,0,2.19,0,3s.05,1.6.08,2.26h-4l-.18-1.9h-.08a5.72,5.72,0,0,1-.93.9,6,6,0,0,1-1.19.76,6.45,6.45,0,0,1-1.44.51A7.58,7.58,0,0,1,34,44a7.75,7.75,0,0,1-2.79-.51,6.81,6.81,0,0,1-2.39-1.59,7.72,7.72,0,0,1-1.7-2.82A11.9,11.9,0,0,1,26.47,35Z"/></svg>