<svg id="Capa_1" data-name="Capa 1" xmlns="http://www.w3.org/2000/svg" viewBox="0 0 264.34 19.55"><defs><style>.cls-1{fill:#fff;}</style></defs><path class="cls-1" d="M551,1910.08h5.62l5.3,7.28,5.3-7.28h5.62l-8.45,11.61V1929h-4.93v-7.35Z" transform="translate(-550.97 -1909.8)"/><path class="cls-1" d="M600.27,1910.08l6.94,19h-5l-1.52-4.17H576.85l-1.53,4.17h-5l6.94-19Zm-19.6,4.32-2.25,6.15H599.1l-2.25-6.15Z" transform="translate(-550.97 -1909.8)"/><path class="cls-1" d="M634,1910.09h5.13v19h-4.65v-11.3l-8,11.3h-4.77l-8-11.3v11.3h-4.65v-19h5.13l9.88,14Z" transform="translate(-550.97 -1909.8)"/><path class="cls-1" d="M642.58,1929v-19h4.93v19Z" transform="translate(-550.97 -1909.8)"/><path class="cls-1" d="M679.81,1919.55c0,6.38-3.15,9.49-8.64,9.49H660.76v-19h10.41C676.66,1910.08,679.81,1913.16,679.81,1919.55Zm-8.64-5.15H665.7v10.32h5.47c1.83,0,3.47.11,3.47-5.18S673,1914.4,671.17,1914.4Z" transform="translate(-550.97 -1909.8)"/><path class="cls-1" d="M687.48,1924.74h21.2v4.31H682.54v-19h25.82v4.32H687.48v2.76H706v4.32h-18.5Z" transform="translate(-550.97 -1909.8)"/><path class="cls-1" d="M729.93,1923.08c0,3.75-3.62,6.26-9,6.26a25.67,25.67,0,0,1-10.7-2.77l2-4.12s4.83,2.33,8.31,2.33c2.94,0,4.64-.37,4.64-1.59,0-.93-.42-1.68-5.48-1.68-6.7,0-8.11-2.28-8.11-4.88,0-4.28,3.47-6.83,9.29-6.83a15.38,15.38,0,0,1,8.13,2l-1.71,4.15a17.89,17.89,0,0,0-6.73-1.59c-2.93,0-4.25.81-4.25,1.61s.44,1.33,5.37,1.33S729.93,1919.19,729.93,1923.08Z" transform="translate(-550.97 -1909.8)"/><path class="cls-1" d="M732.52,1929v-19h4.94v19Z" transform="translate(-550.97 -1909.8)"/><path class="cls-1" d="M793.42,1918.73v10.32h-4.94v-1.39a12.76,12.76,0,0,1-6.46,1.69H751.49c-6.65,0-11.47-3.78-11.47-9.77s4.82-9.77,11.47-9.77h30.56c7.2,0,10.47,3.54,10.47,3.54l-3.5,2.9s-2-2-7-2H751.49c-4.32,0-6.42,1.35-6.42,5.31s2.1,5.3,6.42,5.3H782c2.37,0,4.05-.61,5.08-1.83h-4.65v-4.32Z" transform="translate(-550.97 -1909.8)"/><path class="cls-1" d="M810.66,1910.08h4.65v19h-4.43L801,1917.28V1929h-4.65v-19h4.43l9.89,11.76Z" transform="translate(-550.97 -1909.8)"/></svg>