<svg id="Capa_1" data-name="Capa 1" xmlns="http://www.w3.org/2000/svg" viewBox="0 0 61 61"><defs><style>.cls-1{fill:#2c100f;}.cls-2{fill:#f7991c;fill-rule:evenodd;}</style></defs><rect class="cls-1" x="0.41" y="0.41" width="60.18" height="60.18" rx="8.66"/><path class="cls-2" d="M31.21,38.06H22.48l-1.65,5h-5.3l9-24.16h4.62l9,24.16h-5.3l-1.68-5Zm-7.38-4h6l-3-9.05-3,9.05Zm21.35,9H40.37V25.08h4.81V43ZM40.09,20.45a2.38,2.38,0,0,1,.72-1.78,2.73,2.73,0,0,1,2-.69,2.7,2.7,0,0,1,1.95.69,2.52,2.52,0,0,1,0,3.57,3.07,3.07,0,0,1-3.9,0A2.32,2.32,0,0,1,40.09,20.45Z"/></svg>