<svg xmlns="http://www.w3.org/2000/svg" viewBox="0 0 48 48"><defs><style>.cls-1{fill:none;stroke:#d9e021;stroke-miterlimit:10;stroke-width:2px;}.cls-2{fill:#d9e021;}</style></defs><g id="Capa_2" data-name="Capa 2"><g id="Capa_1-2" data-name="Capa 1"><circle class="cls-1" cx="24" cy="24" r="23"/><path class="cls-2" d="M33.38,26.77l-8,6V11.42A1.43,1.43,0,0,0,24,10h0a1.43,1.43,0,0,0-1.42,1.42V32.74l-8-6a1.42,1.42,0,0,0-2,.28h0a1.42,1.42,0,0,0,.29,2l10.23,7.68a1.44,1.44,0,0,0,1.7,0L35.08,29a1.42,1.42,0,0,0,.29-2h0A1.42,1.42,0,0,0,33.38,26.77Z"/></g></g></svg>