<svg xmlns="http://www.w3.org/2000/svg" viewBox="0 0 45 45"><defs><style>.cls-1{fill:#fff;}</style></defs><g id="Capa_2" data-name="Capa 2"><g id="Capa_1-2" data-name="Capa 1"><path class="cls-1" d="M45,11.77A11.81,11.81,0,0,0,33.23,0H11.77A11.81,11.81,0,0,0,0,11.77V33.23A11.81,11.81,0,0,0,11.77,45H33.23A11.81,11.81,0,0,0,45,33.23ZM17.42,32.31H13.06v-14h4.36ZM15.24,16.4a2.53,2.53,0,1,1,2.53-2.53A2.52,2.52,0,0,1,15.24,16.4ZM33.72,32.31H29.37V25.5c0-1.62,0-3.71-2.26-3.71s-2.61,1.77-2.61,3.59v6.93H20.15v-14h4.18v1.91h.05A4.59,4.59,0,0,1,28.5,18c4.41,0,5.22,2.9,5.22,6.67Z"/></g></g></svg>