<svg id="Capa_1" data-name="Capa 1" xmlns="http://www.w3.org/2000/svg" viewBox="0 0 61 61"><defs><style>.cls-1{fill:#061f34;}.cls-2{fill:#55a0d7;fill-rule:evenodd;}</style></defs><rect class="cls-1" x="0.41" y="0.41" width="60.18" height="60.18" rx="8.66"/><path class="cls-2" d="M28.68,26.37a8.38,8.38,0,0,1-.56,3.13A6.91,6.91,0,0,1,26.44,32a7.49,7.49,0,0,1-2.77,1.62,11.64,11.64,0,0,1-3.86.59H17.74v7H13.63V19.47H20a13.55,13.55,0,0,1,3.73.46,7.6,7.6,0,0,1,2.72,1.33,5.66,5.66,0,0,1,1.68,2.17,7.21,7.21,0,0,1,.57,2.94Zm-4.28.28a4.24,4.24,0,0,0-.27-1.55,3.08,3.08,0,0,0-.83-1.2,3.66,3.66,0,0,0-1.41-.76,6.61,6.61,0,0,0-2-.27H17.74v7.92H20a5.61,5.61,0,0,0,1.87-.29,3.62,3.62,0,0,0,1.37-.83,3.71,3.71,0,0,0,.85-1.31,4.87,4.87,0,0,0,.29-1.71Zm21.88,9.54a4.51,4.51,0,0,1-.64,2.46A5.06,5.06,0,0,1,44,40.31a7.54,7.54,0,0,1-2.39.93,13,13,0,0,1-2.73.29,28.1,28.1,0,0,1-3.35-.18,21.61,21.61,0,0,1-2.83-.5V37.21a15.92,15.92,0,0,0,6,1.23,4.47,4.47,0,0,0,2.39-.51,1.54,1.54,0,0,0,.78-1.33,1.5,1.5,0,0,0-.16-.7,1.7,1.7,0,0,0-.62-.6,8,8,0,0,0-1.29-.6c-.55-.21-1.28-.43-2.17-.69a13,13,0,0,1-2.18-.79,5.71,5.71,0,0,1-1.56-1A3.93,3.93,0,0,1,33,30.8,5.19,5.19,0,0,1,32.65,29,4.21,4.21,0,0,1,33.12,27a4.56,4.56,0,0,1,1.39-1.6,7,7,0,0,1,2.3-1.09,11.35,11.35,0,0,1,3.21-.4,21.14,21.14,0,0,1,2.82.17c.83.12,1.55.24,2.18.38v3.29a16.27,16.27,0,0,0-2.71-.65,16.66,16.66,0,0,0-2.52-.2,3.9,3.9,0,0,0-2,.45A1.39,1.39,0,0,0,37,28.6a1.48,1.48,0,0,0,.15.68,1.78,1.78,0,0,0,.58.59,8,8,0,0,0,1.23.58c.53.21,1.23.43,2.09.67a17.43,17.43,0,0,1,2.46.89,6,6,0,0,1,1.59,1.07A3.51,3.51,0,0,1,46,34.44,5.55,5.55,0,0,1,46.28,36.19Z"/></svg>